<svg width="20" height="20" viewBox="0 0 20 20" fill="none" xmlns="http://www.w3.org/2000/svg">
<path d="M15 6.26184C15.0439 6.26184 15.0874 6.2704 15.1279 6.28723C15.1685 6.30412 15.2054 6.32931 15.2363 6.36047L15.2441 6.36829L15.2529 6.3761C15.2866 6.40726 15.3136 6.44537 15.332 6.48743C15.3504 6.52951 15.3604 6.57529 15.3604 6.62122C15.3603 6.66712 15.3505 6.71295 15.332 6.755C15.3136 6.79688 15.2865 6.83429 15.2529 6.86536L15.2451 6.87219L15.2383 6.88L8.43848 13.6798L8.43652 13.6808C8.40554 13.712 8.36875 13.7371 8.32812 13.754C8.28756 13.7709 8.24414 13.7794 8.2002 13.7794C8.15629 13.7794 8.1128 13.7709 8.07227 13.754C8.03165 13.7371 7.99388 13.712 7.96289 13.6808L4.75586 10.4738L4.71094 10.421C4.698 10.4023 4.68687 10.3824 4.67773 10.3615C4.65933 10.3191 4.64924 10.2729 4.64844 10.2267C4.64767 10.1806 4.65596 10.1348 4.67285 10.0919C4.68976 10.049 4.71504 10.0099 4.74707 9.97668C4.77915 9.94347 4.81801 9.91696 4.86035 9.89856C4.90261 9.88024 4.94809 9.87006 4.99414 9.86926C5.04023 9.86849 5.08602 9.87678 5.12891 9.89368C5.17181 9.91058 5.21096 9.93587 5.24414 9.9679L7.8457 12.5782L8.2002 12.9327L8.55371 12.5782L14.7617 6.36145L14.7637 6.36047C14.7946 6.32929 14.8315 6.30413 14.8721 6.28723C14.9126 6.27039 14.9561 6.26185 15 6.26184Z" fill="currentColor" stroke="currentColor"/>
</svg>
